<mxfile host="app.diagrams.net" agent="Mozilla/5.0 (Windows NT 10.0; Win64; x64) AppleWebKit/537.36 (KHTML, like Gecko) Chrome/132.0.0.0 Safari/537.36" version="26.0.14">
  <diagram name="Page-1" id="WGX-TNtPYBnaQaIRH1jn">
    <mxGraphModel dx="1400" dy="696" grid="1" gridSize="9" guides="1" tooltips="1" connect="1" arrows="1" fold="1" page="1" pageScale="1" pageWidth="1600" pageHeight="900" math="0" shadow="0">
      <root>
        <mxCell id="0" />
        <mxCell id="1" parent="0" />
        <mxCell id="cmiLRkFoAbaz6LtYjS5a-28" style="edgeStyle=orthogonalEdgeStyle;rounded=1;orthogonalLoop=1;jettySize=auto;html=1;exitX=1;exitY=0.5;exitDx=0;exitDy=0;entryX=0;entryY=0.5;entryDx=0;entryDy=0;fontFamily=Helvetica;fontSize=12;fontColor=default;labelBackgroundColor=none;strokeColor=#E07A5F;" edge="1" parent="1" source="cmiLRkFoAbaz6LtYjS5a-1" target="cmiLRkFoAbaz6LtYjS5a-24">
          <mxGeometry relative="1" as="geometry" />
        </mxCell>
        <mxCell id="cmiLRkFoAbaz6LtYjS5a-1" value="" style="rounded=1;whiteSpace=wrap;html=1;labelBackgroundColor=none;fillColor=#F2CC8F;strokeColor=#E07A5F;fontColor=#393C56;" vertex="1" parent="1">
          <mxGeometry x="30" y="280" width="100" height="60" as="geometry" />
        </mxCell>
        <mxCell id="cmiLRkFoAbaz6LtYjS5a-2" value="&lt;b&gt;User&lt;/b&gt;" style="text;html=1;align=center;verticalAlign=middle;whiteSpace=wrap;rounded=1;labelBackgroundColor=none;fontColor=#393C56;" vertex="1" parent="1">
          <mxGeometry x="50" y="295" width="60" height="30" as="geometry" />
        </mxCell>
        <mxCell id="cmiLRkFoAbaz6LtYjS5a-15" value="" style="rounded=1;whiteSpace=wrap;html=1;labelBackgroundColor=none;fillColor=#F2CC8F;strokeColor=#E07A5F;fontColor=#393C56;" vertex="1" parent="1">
          <mxGeometry x="540" y="290" width="120" height="60" as="geometry" />
        </mxCell>
        <mxCell id="cmiLRkFoAbaz6LtYjS5a-16" value="" style="endArrow=classic;html=1;rounded=1;entryX=0;entryY=0.25;entryDx=0;entryDy=0;labelBackgroundColor=none;strokeColor=#E07A5F;fontColor=default;" edge="1" parent="1" source="cmiLRkFoAbaz6LtYjS5a-9" target="cmiLRkFoAbaz6LtYjS5a-15">
          <mxGeometry width="50" height="50" relative="1" as="geometry">
            <mxPoint x="350" y="270" as="sourcePoint" />
            <mxPoint x="380" y="240" as="targetPoint" />
          </mxGeometry>
        </mxCell>
        <mxCell id="cmiLRkFoAbaz6LtYjS5a-17" value="" style="endArrow=classic;html=1;rounded=1;entryX=0;entryY=0.75;entryDx=0;entryDy=0;exitX=1;exitY=0.5;exitDx=0;exitDy=0;labelBackgroundColor=none;strokeColor=#E07A5F;fontColor=default;" edge="1" parent="1" source="cmiLRkFoAbaz6LtYjS5a-23" target="cmiLRkFoAbaz6LtYjS5a-15">
          <mxGeometry width="50" height="50" relative="1" as="geometry">
            <mxPoint x="410" y="360" as="sourcePoint" />
            <mxPoint x="410" y="315" as="targetPoint" />
          </mxGeometry>
        </mxCell>
        <mxCell id="cmiLRkFoAbaz6LtYjS5a-52" style="edgeStyle=orthogonalEdgeStyle;rounded=1;orthogonalLoop=1;jettySize=auto;html=1;entryX=0;entryY=0.5;entryDx=0;entryDy=0;fontFamily=Helvetica;fontSize=12;fontColor=default;labelBackgroundColor=none;strokeColor=#E07A5F;" edge="1" parent="1" source="cmiLRkFoAbaz6LtYjS5a-18" target="cmiLRkFoAbaz6LtYjS5a-49">
          <mxGeometry relative="1" as="geometry" />
        </mxCell>
        <mxCell id="cmiLRkFoAbaz6LtYjS5a-18" value="&lt;b&gt;Process&lt;/b&gt;&lt;div&gt;&lt;b&gt;the&amp;nbsp;&lt;/b&gt;&lt;/div&gt;&lt;div&gt;&lt;b&gt;Query&lt;/b&gt;&lt;/div&gt;" style="text;html=1;align=center;verticalAlign=middle;whiteSpace=wrap;rounded=1;labelBackgroundColor=none;fontColor=#393C56;" vertex="1" parent="1">
          <mxGeometry x="540" y="305" width="120" height="30" as="geometry" />
        </mxCell>
        <mxCell id="cmiLRkFoAbaz6LtYjS5a-9" value="" style="ellipse;whiteSpace=wrap;html=1;aspect=fixed;rounded=1;labelBackgroundColor=none;fillColor=#F2CC8F;strokeColor=#E07A5F;fontColor=#393C56;" vertex="1" parent="1">
          <mxGeometry x="320" y="220" width="80" height="80" as="geometry" />
        </mxCell>
        <mxCell id="cmiLRkFoAbaz6LtYjS5a-23" value="" style="ellipse;whiteSpace=wrap;html=1;aspect=fixed;rounded=1;labelBackgroundColor=none;fillColor=#F2CC8F;strokeColor=#E07A5F;fontColor=#393C56;" vertex="1" parent="1">
          <mxGeometry x="320" y="310" width="80" height="80" as="geometry" />
        </mxCell>
        <mxCell id="cmiLRkFoAbaz6LtYjS5a-24" value="" style="rounded=1;whiteSpace=wrap;html=1;align=center;verticalAlign=middle;fontFamily=Helvetica;fontSize=12;fontColor=#393C56;fillColor=none;labelBackgroundColor=none;strokeColor=#E07A5F;" vertex="1" parent="1">
          <mxGeometry x="180" y="280" width="100" height="60" as="geometry" />
        </mxCell>
        <mxCell id="cmiLRkFoAbaz6LtYjS5a-25" value="" style="endArrow=classic;html=1;rounded=1;fontFamily=Helvetica;fontSize=12;fontColor=default;entryX=0;entryY=0.5;entryDx=0;entryDy=0;labelBackgroundColor=none;strokeColor=#E07A5F;" edge="1" parent="1" target="cmiLRkFoAbaz6LtYjS5a-9">
          <mxGeometry width="50" height="50" relative="1" as="geometry">
            <mxPoint x="280" y="280" as="sourcePoint" />
            <mxPoint x="330" y="230" as="targetPoint" />
          </mxGeometry>
        </mxCell>
        <mxCell id="cmiLRkFoAbaz6LtYjS5a-26" value="" style="endArrow=classic;html=1;rounded=1;fontFamily=Helvetica;fontSize=12;fontColor=default;entryX=0;entryY=0.5;entryDx=0;entryDy=0;labelBackgroundColor=none;strokeColor=#E07A5F;" edge="1" parent="1" target="cmiLRkFoAbaz6LtYjS5a-23">
          <mxGeometry width="50" height="50" relative="1" as="geometry">
            <mxPoint x="280" y="320" as="sourcePoint" />
            <mxPoint x="310" y="350" as="targetPoint" />
          </mxGeometry>
        </mxCell>
        <mxCell id="cmiLRkFoAbaz6LtYjS5a-29" value="&lt;b&gt;Input&lt;/b&gt;" style="text;html=1;align=center;verticalAlign=middle;whiteSpace=wrap;rounded=1;fontFamily=Helvetica;fontSize=12;fontColor=#393C56;labelBackgroundColor=none;" vertex="1" parent="1">
          <mxGeometry x="200" y="295" width="60" height="30" as="geometry" />
        </mxCell>
        <mxCell id="cmiLRkFoAbaz6LtYjS5a-30" value="&lt;b&gt;Text&lt;/b&gt;" style="text;html=1;align=center;verticalAlign=middle;whiteSpace=wrap;rounded=1;fontFamily=Helvetica;fontSize=12;fontColor=#393C56;labelBackgroundColor=none;" vertex="1" parent="1">
          <mxGeometry x="330" y="335" width="60" height="30" as="geometry" />
        </mxCell>
        <mxCell id="cmiLRkFoAbaz6LtYjS5a-31" value="&lt;b&gt;Voice&lt;/b&gt;" style="text;html=1;align=center;verticalAlign=middle;whiteSpace=wrap;rounded=1;fontFamily=Helvetica;fontSize=12;fontColor=#393C56;labelBackgroundColor=none;" vertex="1" parent="1">
          <mxGeometry x="330" y="245" width="60" height="30" as="geometry" />
        </mxCell>
        <mxCell id="cmiLRkFoAbaz6LtYjS5a-33" value="&lt;b&gt;If the Query is about the current News &amp;amp; weather&lt;/b&gt;" style="text;html=1;align=center;verticalAlign=middle;whiteSpace=wrap;rounded=1;fontFamily=Helvetica;fontSize=12;fontColor=#393C56;labelBackgroundColor=none;" vertex="1" parent="1">
          <mxGeometry x="743" y="306" width="60" height="29" as="geometry" />
        </mxCell>
        <mxCell id="cmiLRkFoAbaz6LtYjS5a-57" style="edgeStyle=orthogonalEdgeStyle;rounded=1;orthogonalLoop=1;jettySize=auto;html=1;entryX=0;entryY=0.5;entryDx=0;entryDy=0;fontFamily=Helvetica;fontSize=12;fontColor=default;labelBackgroundColor=none;strokeColor=#E07A5F;" edge="1" parent="1" source="cmiLRkFoAbaz6LtYjS5a-49" target="cmiLRkFoAbaz6LtYjS5a-56">
          <mxGeometry relative="1" as="geometry" />
        </mxCell>
        <mxCell id="cmiLRkFoAbaz6LtYjS5a-61" style="edgeStyle=orthogonalEdgeStyle;rounded=0;orthogonalLoop=1;jettySize=auto;html=1;exitX=0.5;exitY=1;exitDx=0;exitDy=0;entryX=0.5;entryY=0;entryDx=0;entryDy=0;strokeColor=#E07A5F;fontColor=#393C56;fillColor=#F2CC8F;" edge="1" parent="1" source="cmiLRkFoAbaz6LtYjS5a-49" target="cmiLRkFoAbaz6LtYjS5a-60">
          <mxGeometry relative="1" as="geometry" />
        </mxCell>
        <mxCell id="cmiLRkFoAbaz6LtYjS5a-49" value="" style="rhombus;whiteSpace=wrap;html=1;rounded=1;align=center;verticalAlign=middle;fontFamily=Helvetica;fontSize=12;fontColor=#393C56;fillColor=none;movable=1;resizable=1;rotatable=1;deletable=1;editable=1;locked=0;connectable=1;labelBackgroundColor=none;strokeColor=#E07A5F;" vertex="1" parent="1">
          <mxGeometry x="693" y="240" width="160" height="160" as="geometry" />
        </mxCell>
        <mxCell id="cmiLRkFoAbaz6LtYjS5a-54" value="&lt;b&gt;Yes&lt;/b&gt;" style="text;html=1;align=center;verticalAlign=middle;whiteSpace=wrap;rounded=1;fontFamily=Helvetica;fontSize=12;fontColor=#393C56;labelBackgroundColor=none;" vertex="1" parent="1">
          <mxGeometry x="927" y="306" width="60" height="30" as="geometry" />
        </mxCell>
        <mxCell id="cmiLRkFoAbaz6LtYjS5a-59" style="edgeStyle=orthogonalEdgeStyle;rounded=1;orthogonalLoop=1;jettySize=auto;html=1;entryX=0;entryY=0.5;entryDx=0;entryDy=0;fontFamily=Helvetica;fontSize=12;fontColor=default;labelBackgroundColor=none;strokeColor=#E07A5F;" edge="1" parent="1" source="cmiLRkFoAbaz6LtYjS5a-56" target="cmiLRkFoAbaz6LtYjS5a-58">
          <mxGeometry relative="1" as="geometry" />
        </mxCell>
        <mxCell id="cmiLRkFoAbaz6LtYjS5a-56" value="" style="ellipse;whiteSpace=wrap;html=1;aspect=fixed;rounded=1;align=center;verticalAlign=middle;fontFamily=Helvetica;fontSize=12;fontColor=#393C56;fillColor=none;labelBackgroundColor=none;strokeColor=#E07A5F;" vertex="1" parent="1">
          <mxGeometry x="930" y="290" width="60" height="60" as="geometry" />
        </mxCell>
        <mxCell id="cmiLRkFoAbaz6LtYjS5a-58" value="" style="rounded=1;whiteSpace=wrap;html=1;align=center;verticalAlign=middle;fontFamily=Helvetica;fontSize=12;fontColor=#393C56;fillColor=none;labelBackgroundColor=none;strokeColor=#E07A5F;" vertex="1" parent="1">
          <mxGeometry x="1080" y="290" width="120" height="60" as="geometry" />
        </mxCell>
        <mxCell id="cmiLRkFoAbaz6LtYjS5a-60" value="" style="ellipse;whiteSpace=wrap;html=1;aspect=fixed;rounded=1;align=center;verticalAlign=middle;fontFamily=Helvetica;fontSize=12;fontColor=#393C56;fillColor=none;labelBackgroundColor=none;strokeColor=#E07A5F;" vertex="1" parent="1">
          <mxGeometry x="743" y="480" width="60" height="60" as="geometry" />
        </mxCell>
        <mxCell id="cmiLRkFoAbaz6LtYjS5a-65" style="edgeStyle=orthogonalEdgeStyle;rounded=0;orthogonalLoop=1;jettySize=auto;html=1;strokeColor=#E07A5F;fontColor=#393C56;fillColor=#F2CC8F;" edge="1" parent="1" source="cmiLRkFoAbaz6LtYjS5a-62">
          <mxGeometry relative="1" as="geometry">
            <mxPoint x="900" y="510" as="targetPoint" />
          </mxGeometry>
        </mxCell>
        <mxCell id="cmiLRkFoAbaz6LtYjS5a-62" value="&lt;b&gt;No&lt;/b&gt;" style="text;html=1;align=center;verticalAlign=middle;whiteSpace=wrap;rounded=0;fontColor=#393C56;" vertex="1" parent="1">
          <mxGeometry x="743" y="495" width="60" height="30" as="geometry" />
        </mxCell>
        <mxCell id="cmiLRkFoAbaz6LtYjS5a-63" value="" style="rounded=1;whiteSpace=wrap;html=1;align=center;verticalAlign=middle;fontFamily=Helvetica;fontSize=12;fontColor=#393C56;fillColor=none;labelBackgroundColor=none;strokeColor=#E07A5F;" vertex="1" parent="1">
          <mxGeometry x="900" y="480" width="120" height="60" as="geometry" />
        </mxCell>
        <mxCell id="cmiLRkFoAbaz6LtYjS5a-66" value="&lt;b&gt;Use the news&amp;amp; weather api to&amp;nbsp;generate output&lt;/b&gt;" style="text;html=1;align=center;verticalAlign=middle;whiteSpace=wrap;rounded=0;fontColor=#393C56;" vertex="1" parent="1">
          <mxGeometry x="1074" y="306" width="126" height="30" as="geometry" />
        </mxCell>
        <mxCell id="cmiLRkFoAbaz6LtYjS5a-67" value="&lt;b&gt;Use the Gemini Api to generate output&lt;/b&gt;" style="text;html=1;align=center;verticalAlign=middle;whiteSpace=wrap;rounded=0;fontColor=#393C56;" vertex="1" parent="1">
          <mxGeometry x="897" y="495" width="126" height="30" as="geometry" />
        </mxCell>
      </root>
    </mxGraphModel>
  </diagram>
</mxfile>
